<svg xmlns="http://www.w3.org/2000/svg" xmlns:xlink="http://www.w3.org/1999/xlink"><symbol viewBox="0 0 20 23" id="apple" xmlns="http://www.w3.org/2000/svg"><path d="M9.774 5.866c2.632.097 4.834-2.879 4.448-5.285-1.998.161-4.834 2.224-4.448 5.285Zm.613.849c1.31 0 2.342-1.128 4.286-1.128 2.62 0 4.297 2.514 4.297 2.514s-2.557 1.375-2.557 4.36c0 3.546 3.212 4.577 3.212 4.577S17.09 23 14.243 23c-1.6 0-1.708-.913-3.835-.913-1.847 0-2.47.913-3.878.913C3.845 23 .375 17.188.375 12.462c0-4.91 3.513-6.875 5.715-6.875 1.933 0 2.74 1.128 4.297 1.128Z" fill-rule="evenodd"/></symbol><symbol viewBox="0 0 14 9" id="arrow_left" xmlns="http://www.w3.org/2000/svg"><path d="M4.573.135c.19-.18.508-.18.705 0 .19.175.19.465 0 .639l-3.577 3.27h11.805c.275.001.494.201.494.453 0 .251-.219.458-.494.458H1.701L5.278 8.22c.19.18.19.47 0 .645a.527.527 0 0 1-.705 0L.148 4.819a.418.418 0 0 1 0-.638L4.573.135Z" fill-rule="nonzero"/></symbol><symbol viewBox="0 0 14 11" id="arrow_out" xmlns="http://www.w3.org/2000/svg"><path d="M1.014 9.43c-.095.088-.152.133-.241.133H.709A.27.27 0 0 1 .5 9.309C.633 5.633 2.938 3.335 7 3.335V.898c0-.108.057-.197.152-.241a.287.287 0 0 1 .286.025l5.954 4.609c.064.044.108.12.108.209a.255.255 0 0 1-.108.21l-5.954 4.608a.229.229 0 0 1-.165.057.285.285 0 0 1-.12-.032.259.259 0 0 1-.153-.241V7.665c-2.71 0-5.008.545-5.986 1.764Z" fill-rule="evenodd"/></symbol><symbol viewBox="0 0 14 9" id="arrow_right" xmlns="http://www.w3.org/2000/svg"><path d="M9.427.135a.527.527 0 0 0-.705 0 .428.428 0 0 0 0 .639l3.577 3.27H.494C.219 4.046 0 4.246 0 4.498c0 .251.219.458.494.458h11.805L8.722 8.22a.435.435 0 0 0 0 .645c.197.18.515.18.705 0l4.425-4.046a.418.418 0 0 0 0-.638L9.427.135Z" fill-rule="nonzero"/></symbol><symbol viewBox="0 0 13 13" id="best_buy" xmlns="http://www.w3.org/2000/svg"><path d="M.241 8.233a.828.828 0 0 1 0-1.162L7.236.076A.283.283 0 0 1 7.42 0h4.768A.81.81 0 0 1 13 .813V5.58c0 .063-.032.14-.076.184l-6.995 6.995a.828.828 0 0 1-1.162 0L.241 8.233Zm8.697-5.39c0 .68.54 1.22 1.218 1.22.68 0 1.219-.54 1.219-1.22 0-.678-.54-1.218-1.219-1.218s-1.219.54-1.219 1.219Z" fill-rule="evenodd"/></symbol><symbol viewBox="0 0 9 15" id="bookmark" xmlns="http://www.w3.org/2000/svg"><path d="M8.25.938v13.747a.319.319 0 0 1-.19.3C8.023 15 7.972 15 7.935 15a.345.345 0 0 1-.22-.088L4.5 11.704l-3.215 3.208c-.08.088-.22.103-.345.073a.319.319 0 0 1-.19-.3V.937c0-.52.417-.937.938-.937h5.625c.52 0 .937.417.937.938Z" fill-rule="evenodd"/></symbol><symbol viewBox="0 0 16 16" id="calendar" xmlns="http://www.w3.org/2000/svg"><path d="M14.333 16c.445 0 .834-.167 1.167-.5.333-.333.5-.722.5-1.167V3c0-.444-.167-.833-.5-1.167-.333-.333-.722-.5-1.167-.5h-1V0h-2v1.333H4.667V0h-2v1.333h-1c-.445 0-.834.167-1.167.5C.167 2.167 0 2.556 0 3v11.333c0 .445.167.834.5 1.167.333.333.722.5 1.167.5h12.666Zm0-1.667H1.667V5.5h12.666v8.833Z" fill-rule="evenodd"/></symbol><symbol viewBox="0 0 12 8" id="camera" xmlns="http://www.w3.org/2000/svg"><path d="M12 .502v6.996c0 .1-.053.2-.152.24-.03.012-.07.012-.1.012a.276.276 0 0 1-.176-.07L9 5.096V7c0 .416-.334.75-.75.75H.75A.748.748 0 0 1 0 7V1C0 .584.334.25.75.25h7.5C8.666.25 9 .584 9 1v1.904L11.572.32c.065-.07.176-.082.276-.058.1.04.152.14.152.24Z" fill="#000" fill-rule="evenodd"/></symbol><symbol viewBox="0 0 14 9" id="caret_down" xmlns="http://www.w3.org/2000/svg"><path d="M13.279.208 7.071 8.142.863.208z"/></symbol><symbol viewBox="0 0 18 28" id="chevron_down" xmlns="http://www.w3.org/2000/svg"><path d="M16.797 11.5a.54.54 0 0 1-.156.359L9.36 19.14c-.094.094-.234.156-.359.156s-.266-.063-.359-.156l-7.281-7.281c-.094-.094-.156-.234-.156-.359s.063-.266.156-.359l.781-.781a.508.508 0 0 1 .359-.156.54.54 0 0 1 .359.156l6.141 6.141 6.141-6.141c.094-.094.234-.156.359-.156s.266.063.359.156l.781.781a.536.536 0 0 1 .156.359z"/></symbol><symbol viewBox="0 0 12 18" id="chevron_left" xmlns="http://www.w3.org/2000/svg"><path d="m5.6 9 6.4 6.26L9.2 18 0 9l9.2-9L12 2.74z" fill-rule="nonzero"/></symbol><symbol viewBox="0 0 12 18" id="chevron_right" xmlns="http://www.w3.org/2000/svg"><path d="M6.4 9 0 15.26 2.8 18 12 9 2.8 0 0 2.74z" fill-rule="nonzero"/></symbol><symbol viewBox="0 0 16 16" id="clock" xmlns="http://www.w3.org/2000/svg"><path d="M8 0c4.43 0 8 3.57 8 8s-3.57 8-8 8-8-3.57-8-8 3.57-8 8-8Zm3.54 11.54.944-.946L9.22 7.336 8 2H6.664v6c0 .336.133.688.39.945.079.07.15.125.227.188l4.258 2.406Z" fill-rule="evenodd"/></symbol><symbol viewBox="0 0 14 14" id="close" xmlns="http://www.w3.org/2000/svg"><g transform="translate(-1)" fill-rule="evenodd"><rect transform="rotate(-45 7.768 7.268)" x="6.768" y="-1.732" width="2" height="18" rx="1"/><rect transform="rotate(45 7.768 7.268)" x="6.768" y="-1.732" width="2" height="18" rx="1"/></g></symbol><symbol viewBox="0 0 8 8" id="close_mini" xmlns="http://www.w3.org/2000/svg"><path d="M7.465 6.047a.19.19 0 0 1 .043.121.18.18 0 0 1-.043.117l-1.18 1.18a.18.18 0 0 1-.117.043.19.19 0 0 1-.121-.043L4 5.418 1.953 7.465a.19.19 0 0 1-.121.043.18.18 0 0 1-.117-.043l-1.18-1.18a.18.18 0 0 1-.043-.117.19.19 0 0 1 .043-.121L2.582 4 .535 1.953a.19.19 0 0 1-.043-.121.18.18 0 0 1 .043-.117l1.18-1.18a.18.18 0 0 1 .117-.043.19.19 0 0 1 .121.043L4 2.582 6.047.535a.19.19 0 0 1 .121-.043.18.18 0 0 1 .117.043l1.18 1.18a.18.18 0 0 1 .043.117.19.19 0 0 1-.043.121L5.418 4l2.047 2.047Z" fill-rule="evenodd"/></symbol><symbol viewBox="0 0 12 16" id="delete" xmlns="http://www.w3.org/2000/svg"><path d="M.857 14.333C.857 15.25 1.63 16 2.571 16H9.43c.942 0 1.714-.75 1.714-1.667v-10H.857v10ZM12 .833H9L8.143 0H3.857L3 .833H0V2.5h12V.833Z" fill-rule="nonzero"/></symbol><symbol viewBox="0 0 16 4" id="dots" xmlns="http://www.w3.org/2000/svg"><g fill-rule="evenodd"><circle cx="2" cy="2" r="1.5"/><circle cx="8" cy="2" r="1.5"/><circle cx="14" cy="2" r="1.5"/></g></symbol><symbol viewBox="0 0 12 13" id="download" xmlns="http://www.w3.org/2000/svg"><path d="M11.415 13H.585a.27.27 0 0 1-.272-.273v-1.625a.27.27 0 0 1 .272-.267h10.83a.27.27 0 0 1 .273.267v1.625a.27.27 0 0 1-.273.273Zm.196-8.74L6.197 9.673A.331.331 0 0 1 6 9.75a.331.331 0 0 1-.197-.076L.39 4.259c-.077-.076-.09-.197-.064-.304a.287.287 0 0 1 .26-.165h2.978V.273A.27.27 0 0 1 3.835 0h4.33a.27.27 0 0 1 .273.273V3.79h2.977c.107 0 .215.063.26.165.025.107.012.228-.064.304Z" fill-rule="evenodd"/></symbol><symbol viewBox="0 0 22 18" id="email" xmlns="http://www.w3.org/2000/svg"><path d="m22 2.125-11 8.25-11-8.25A1.37 1.37 0 0 1 1.375.75h19.25A1.37 1.37 0 0 1 22 2.125ZM0 4.595l11 8.25 11-8.25v11.28a1.37 1.37 0 0 1-1.375 1.375H1.375A1.37 1.37 0 0 1 0 15.875V4.595Z" fill-rule="evenodd"/></symbol><symbol viewBox="0 0 18 18" id="facebook" xmlns="http://www.w3.org/2000/svg"><path d="M18 9.055C18 4.055 13.97 0 9 0S0 4.054 0 9.055C0 13.574 3.29 17.32 7.594 18v-6.327H5.308V9.055h2.286V7.059c0-2.269 1.344-3.523 3.4-3.523.984 0 2.014.177 2.014.177v2.228h-1.135c-1.118 0-1.467.698-1.467 1.415v1.699h2.496l-.399 2.618h-2.097V18C14.71 17.321 18 13.575 18 9.055Z"/></symbol><symbol viewBox="0 0 18 18" id="feature" xmlns="http://www.w3.org/2000/svg"><path d="M17.2 9.7c-.4 0-.8.4-.8.8V13c0 1.9-1.5 3.4-3.4 3.4H5c-1.9 0-3.4-1.5-3.4-3.4V5c0-1.9 1.5-3.4 3.4-3.4h3.3c.4 0 .8-.4.8-.8S8.7 0 8.3 0H5C2.2 0 0 2.2 0 5v8c0 2.7 2.2 5 5 5h8c2.7 0 5-2.2 5-5v-2.5c0-.4-.4-.8-.8-.8z"/><path d="M4.3 5.3h2.4c.4 0 .8-.3.8-.8s-.3-.8-.8-.8H4.3c-.4 0-.8.3-.8.8s.3.8.8.8zm0 3h3.6c.4 0 .8-.3.8-.8s-.3-.8-.8-.8H4.3c-.4 0-.8.3-.8.8s.3.8.8.8zm9.2 1.4H4.3c-.4 0-.8.3-.8.8s.3.8.8.8h9.2c.4 0 .8-.3.8-.8s-.3-.8-.8-.8zm0 3H4.3c-.4 0-.8.3-.8.8s.3.8.8.8h9.2c.4 0 .8-.3.8-.8s-.3-.8-.8-.8zM13.7.1l1.2 2.6c0 .1.1.1.2.1l2.7.4c.2 0 .3.3.1.4l-2 2c-.1.1-.1.1-.1.2l.5 2.8c0 .2 0 .4-.3.3l-2.4-1.3c-.1 0-.1-.1-.2 0L11 9c-.2.1-.4-.1-.3-.3l.5-2.8c0-.1 0-.1-.1-.2l-2-2c-.2-.2-.1-.4.1-.4l2.7-.4c.1 0 .1 0 .2-.1L13.3.2c.1-.2.3-.2.4-.1z"/></symbol><symbol viewBox="0 0 22 10" id="flickr" xmlns="http://www.w3.org/2000/svg"><path d="M22 5.001C22 7.761 19.793 10 17.07 10s-4.93-2.238-4.93-4.999C12.14 2.239 14.346 0 17.07 0S22 2.239 22 5.001ZM4.93 0C2.207 0 0 2.239 0 5.001 0 7.761 2.207 10 4.93 10s4.93-2.238 4.93-4.999C9.86 2.239 7.653 0 4.93 0Z"/></symbol><symbol viewBox="0 0 50 33" id="fs_logo" xmlns="http://www.w3.org/2000/svg"><path d="M49.207 0c.438 0 .793.358.793.8v8.4c0 .442-.355.8-.793.8h-9.921a.398.398 0 0 1-.397-.4v-4H22.222v2.8H31.4c.39.021.703.326.743.714v4.179c0 .37-.384.707-.674.707H7.143V5.6H.397A.399.399 0 0 1 0 5.2V.8C0 .358.355 0 .794 0h48.413Zm-6.61 18.57c1.583.342 7.313 1.509 7.313 5.895 0 6.636-11.934 7.562-16.079 7.562h-7.847c-3.16 0-6.51-.945-8.59-1.87l-.1 1.723a.393.393 0 0 1-.392.384H7.034a.394.394 0 0 1-.394-.394v-5.905c0-.218.176-.394.394-.394h10.268a.39.39 0 0 1 .35.223c.005.017.013.034.019.05.618 1.841 5.129 1.927 5.444 1.927h10.298c.462 0 2.218.02 2.218-1.277 0-1.298-1.756-1.272-2.218-1.272l-8.21-.06c-2.23 0-8.924-.697-11.594-1.446C9.14 22.436 6.992 19.932 6.992 18c0-.25.051-.772.1-1l14.974.008c.323.505 2.734.637 3.454.637l6.482.053c2.696 0 8.959.519 10.595.872Z"/></symbol><symbol viewBox="0 0 22 20" id="google" xmlns="http://www.w3.org/2000/svg"><path d="M22 4.038v.924h-3.663v3.663h-.924V4.962H13.75v-.924h3.663V.375h.924v3.663H22ZM9.55 11.525c1.504 1.096 2.009 2.095 2.009 3.75 0 2.083-2.01 4.146-5.672 4.146-3.19 0-5.887-1.3-5.887-3.384 0-2.116 2.47-4.157 5.65-4.157h1c-.441-.43-.763-.935-.763-1.58 0-.375.096-.762.279-1.084-.183.021-.365.021-.537.021-2.621 0-4.383-1.858-4.383-4.178 0-2.267 2.417-4.222 5.017-4.222h5.758l-1.3.934H8.884c1.224.462 1.858 1.859 1.858 3.32 0 1.214-.655 2.256-1.622 2.997-.924.741-1.096 1.042-1.096 1.654 0 .537.989 1.429 1.526 1.783ZM6.467 8.646C7.949 8.7 8.937 7.153 8.68 5.21 8.433 3.254 7.025 1.696 5.52 1.653 4.05 1.6 3.051 3.103 3.31 5.037c.257 1.955 1.686 3.567 3.158 3.61Zm-.58 9.862c3.104 0 4.168-1.332 4.168-3.008 0-.204-.022-.387-.043-.59-.258-.935-1.128-1.419-2.32-2.257a6.402 6.402 0 0 0-1.43-.236c-2.212 0-4.178 1.354-4.178 3.008 0 1.676 1.58 3.083 3.803 3.083Z" fill-rule="evenodd"/></symbol><symbol viewBox="0 0 25 22" id="home" xmlns="http://www.w3.org/2000/svg"><path d="M12.5 0c.359 0 .654.127.887.38l9.445 9.924.994 1.081c.377.533.308 1.045-.207 1.536-.515.491-1.055.491-1.622 0l-.933-.906v8.763c-.027.374-.145.665-.352.873-.208.207-.499.324-.872.349h-3.914c-.387-.031-.68-.148-.882-.35-.202-.2-.316-.491-.342-.872v-5.365h-4.404v5.365c0 .366-.108.657-.324.873-.216.216-.516.332-.9.349H4.99c-.288.013-.539-.103-.751-.35a1.233 1.233 0 0 1-.303-.872v-8.763l-.906.906c-.613.515-1.178.515-1.694 0-.515-.515-.515-1.092 0-1.73L11.613.38A1.15 1.15 0 0 1 12.5 0Zm0 2.997L6.383 9.442v10.12H7.88v-5.475a1 1 0 0 1 1-1h7.27a1 1 0 0 1 1 1v5.476h1.486V9.442L12.5 2.997Z" fill-rule="evenodd"/></symbol><symbol viewBox="0 0 18 16" id="index" xmlns="http://www.w3.org/2000/svg"><path d="M17.622.125c.211 0 .378.167.378.378v13.122a2.243 2.243 0 0 1-2.25 2.25H2.25A2.243 2.243 0 0 1 0 13.625V2.753c0-.211.167-.378.378-.378h1.494v10.872a.75.75 0 0 0 .756.756.748.748 0 0 0 .747-.756V.503c0-.211.167-.378.378-.378h13.87Zm-1.872 6.75V3.5H9v3.375h6.75Z" fill-rule="nonzero"/></symbol><symbol viewBox="0 0 18 18" id="instagram" xmlns="http://www.w3.org/2000/svg"><path d="M12.96 0H4.94A4.946 4.946 0 0 0 0 4.94v8.02a4.945 4.945 0 0 0 4.94 4.94h8.02a4.946 4.946 0 0 0 4.94-4.94V4.94A4.946 4.946 0 0 0 12.96 0Zm3.353 12.96a3.356 3.356 0 0 1-3.352 3.352H4.94a3.355 3.355 0 0 1-3.352-3.351V4.94A3.355 3.355 0 0 1 4.94 1.588h8.02a3.356 3.356 0 0 1 3.352 3.352v8.02Z"/><path d="M8.95 4.338a4.618 4.618 0 0 0-4.612 4.613 4.618 4.618 0 0 0 4.612 4.612 4.618 4.618 0 0 0 4.613-4.612A4.618 4.618 0 0 0 8.95 4.338Zm0 7.637A3.028 3.028 0 0 1 5.926 8.95 3.028 3.028 0 0 1 8.95 5.926a3.028 3.028 0 0 1 3.025 3.024 3.028 3.028 0 0 1-3.025 3.025ZM13.756 2.991a1.17 1.17 0 0 0-1.164 1.165c0 .306.125.607.342.824.216.216.516.34.822.34.307 0 .607-.124.824-.34a1.17 1.17 0 0 0 0-1.648 1.17 1.17 0 0 0-.824-.34Z"/></symbol><symbol viewBox="0 0 18 18" id="link" xmlns="http://www.w3.org/2000/svg"><path d="m16.506 8.003-2.633 2.44a5.617 5.617 0 0 0-.383-2.676l1.376-1.3a2.44 2.44 0 0 0 .793-1.782c0-.65-.264-1.291-.793-1.78a2.816 2.816 0 0 0-1.922-.735c-.692 0-1.385.244-1.922.734L8.107 5.58c-.529.507-.802 1.157-.802 1.807 0 .65.264 1.291.802 1.781.236.22.355.498.355.768s-.119.54-.355.752c-.22.21-.52.312-.82.312-.292 0-.593-.101-.82-.312C5.492 9.768 5 8.568 5 7.37c0-1.199.492-2.398 1.467-3.31l2.897-2.676A5.234 5.234 0 0 1 12.926 0c1.293 0 2.587.464 3.58 1.384.993.92 1.494 2.12 1.494 3.318 0 1.19-.501 2.38-1.494 3.301Zm-4.972 5.934-2.913 2.697C7.638 17.544 6.345 18 5.043 18c-1.292 0-2.585-.455-3.568-1.366C.492 15.724 0 14.527 0 13.33c0-1.205.492-2.402 1.475-3.312l2.658-2.453a5.7 5.7 0 0 0 .382 2.697l-1.374 1.273a2.423 2.423 0 0 0-.792 1.778c0 .65.264 1.29.792 1.779.528.489 1.22.733 1.92.733.693 0 1.393-.244 1.921-.733l2.886-2.672c.547-.489.81-1.138.81-1.779 0-.649-.263-1.29-.81-1.778a1.042 1.042 0 0 1-.336-.776c0-.278.109-.556.336-.767.228-.21.528-.32.838-.32.3 0 .6.11.828.32.984.92 1.466 2.116 1.466 3.313a4.478 4.478 0 0 1-1.466 3.304Z" fill-rule="evenodd"/></symbol><symbol viewBox="0 0 18 18" id="linkedin" xmlns="http://www.w3.org/2000/svg"><path d="M14.886 9.16a3.107 3.107 0 0 0-.627-1.104 2.46 2.46 0 0 0-.942-.647 3.276 3.276 0 0 0-1.19-.209c-.342 0-.64.041-.894.124a2.35 2.35 0 0 0-.656.323c-.184.133-.34.276-.466.428a6.378 6.378 0 0 0-.324.419V7.39H7.2c.013.216.019.634.019 1.256v2.36L7.2 15.21h2.587v-4.376c0-.114.007-.225.02-.333.012-.108.038-.206.076-.295a2.09 2.09 0 0 1 .466-.647c.209-.203.498-.304.865-.304.47 0 .806.162 1.009.485.203.323.304.751.304 1.284v4.186h2.588v-4.49c0-.596-.076-1.116-.229-1.56ZM5.23 5.902c.267-.266.394-.583.381-.951 0-.38-.13-.7-.39-.961-.26-.26-.612-.39-1.056-.39-.444 0-.8.13-1.065.39-.267.26-.4.58-.4.96 0 .369.127.686.38.952.254.266.603.4 1.047.4h.019c.457 0 .818-.134 1.084-.4ZM5.288 7.2H2.7v7.82h2.588V7.2ZM17.713.124a.41.41 0 0 1 .133.314V17.56a.41.41 0 0 1-.133.314.458.458 0 0 1-.323.124H.457a.458.458 0 0 1-.324-.124A.41.41 0 0 1 0 17.56V.438A.41.41 0 0 1 .133.124.458.458 0 0 1 .457 0H17.39c.126 0 .234.041.323.124Z"/></symbol><symbol viewBox="0 0 14 18" id="lock" xmlns="http://www.w3.org/2000/svg"><path d="M12.625 7.875c.624 0 1.125.501 1.125 1.125v7.875c0 .624-.501 1.125-1.125 1.125H1.375A1.122 1.122 0 0 1 .25 16.875V9c0-.624.501-1.125 1.125-1.125H2.5V4.5C2.5 2.021 4.521 0 7 0s4.5 2.021 4.5 4.5v3.375h1.125ZM4.75 4.5v3.375h4.5V4.5A2.243 2.243 0 0 0 7 2.25 2.243 2.243 0 0 0 4.75 4.5Z" fill-rule="evenodd"/></symbol><symbol viewBox="0 0 14 12" id="mail" xmlns="http://www.w3.org/2000/svg"><path d="m7 6.875-7-5.25C0 1.14.39.75.875.75h12.25c.485 0 .875.39.875.875l-7 5.25Zm0 1.572 7-5.25v7.178c0 .485-.39.875-.875.875H.875A.872.872 0 0 1 0 10.375V3.197l7 5.25Z" fill-rule="evenodd"/></symbol><symbol viewBox="0 0 17 24" id="marker" xmlns="http://www.w3.org/2000/svg"><path d="M15.642 6.253c-.083-.309-.25-.637-.373-.925C13.789 1.774 10.559.5 7.949.5 4.456.5.609 2.842.095 7.67v.986c0 .041.014.411.035.596.288 2.301 2.103 4.746 3.459 7.047 1.459 2.465 2.972 4.89 4.472 7.314.925-1.582 1.846-3.184 2.75-4.725.246-.452.532-.904.778-1.336.165-.287.479-.575.622-.842 1.459-2.67 3.807-5.362 3.807-8.013V7.61c0-.288-.356-1.294-.376-1.356Zm-7.63 4.951c-1.026 0-2.15-.513-2.704-1.931-.083-.226-.076-.678-.076-.72v-.637c0-1.807 1.534-2.629 2.87-2.629 1.643 0 2.914 1.315 2.914 2.959 0 1.643-1.36 2.958-3.003 2.958Z" fill-rule="nonzero"/></symbol><symbol viewBox="0 0 14 12" id="menu" xmlns="http://www.w3.org/2000/svg"><g stroke="#FFF" stroke-width="2" fill="none" fill-rule="evenodd" stroke-linecap="round"><path d="M1.667 1.667H13M1.667 6.333H13M1.667 11H13"/></g></symbol><symbol viewBox="0 0 18 16" id="news" xmlns="http://www.w3.org/2000/svg"><path d="M17.622.125c.211 0 .378.167.378.378v13.122a2.243 2.243 0 0 1-2.25 2.25H2.25A2.243 2.243 0 0 1 0 13.625V2.753c0-.211.167-.378.378-.378h1.494v10.872a.75.75 0 0 0 .756.756.748.748 0 0 0 .747-.756V.503c0-.211.167-.378.378-.378h13.87Zm-1.872 6.75V3.5H9v3.375h6.75Z" fill-rule="nonzero"/></symbol><symbol viewBox="0 0 11 11" id="pause" xmlns="http://www.w3.org/2000/svg"><path d="M3.894 11H.231A.23.23 0 0 1 0 10.769V.231A.23.23 0 0 1 .231 0h3.663a.23.23 0 0 1 .231.231v10.538a.23.23 0 0 1-.231.231Zm6.875 0H7.106a.23.23 0 0 1-.231-.231V.231A.23.23 0 0 1 7.106 0h3.663A.23.23 0 0 1 11 .231v10.538a.23.23 0 0 1-.231.231Z" fill-rule="evenodd"/></symbol><symbol viewBox="0 0 17 17" id="phone" xmlns="http://www.w3.org/2000/svg"><g fill-rule="nonzero"><path d="M12.998 11.213c-.559-.551-1.256-.551-1.811 0-.424.42-.847.84-1.263 1.267-.114.117-.21.142-.349.064-.274-.15-.565-.27-.829-.434-1.227-.772-2.255-1.765-3.166-2.882-.452-.555-.854-1.149-1.135-1.818-.057-.135-.046-.224.064-.334.424-.41.836-.829 1.252-1.249.58-.583.58-1.266-.003-1.853-.331-.335-.662-.662-.993-.996-.341-.342-.68-.687-1.024-1.025-.559-.544-1.256-.544-1.811.004-.427.42-.836.85-1.27 1.263-.402.38-.605.846-.648 1.39-.067.886.15 1.723.456 2.537.626 1.686 1.58 3.184 2.736 4.557a16.93 16.93 0 0 0 5.606 4.387c.982.476 2 .843 3.106.903.761.043 1.423-.15 1.953-.743.363-.406.772-.776 1.156-1.164.57-.576.573-1.273.008-1.842-.676-.68-1.356-1.356-2.035-2.032ZM12.535 7.727l1.374-.205c-.216-1.105-.811-2.106-1.716-2.902-.957-.838-2.167-1.366-3.5-1.53L8.5 4.3c1.031.128 1.97.535 2.71 1.184.7.613 1.158 1.389 1.325 2.243Z"/><path d="M14.262 2.853C12.739 1.29 10.812.304 8.686 0L8.5 1.36a8.356 8.356 0 0 1 4.818 2.465A8.722 8.722 0 0 1 15.681 8.5L17 8.269a10.14 10.14 0 0 0-2.738-5.416Z"/></g></symbol><symbol viewBox="0 0 14 14" id="phone_alt" xmlns="http://www.w3.org/2000/svg"><path d="M14 1.668c0 .034 0 .068-.014.116-.8 6.364-5.851 11.403-12.202 12.202-.048.014-.082.014-.116.014s-.082 0-.11-.014a.347.347 0 0 1-.163-.164L.014 10.356a.316.316 0 0 1 .15-.376l3.821-1.914c.117-.061.246-.027.342.055l1.86 1.88A11.76 11.76 0 0 0 9.98 6.187l-1.859-1.86c-.082-.096-.116-.225-.055-.342L9.98.165a.316.316 0 0 1 .376-.151l3.466 1.38c.062.035.13.096.144.165.02.027.034.075.034.109Z" fill-rule="evenodd"/></symbol><symbol viewBox="0 0 20 20" id="play" xmlns="http://www.w3.org/2000/svg"><path d="M.42 20a.432.432 0 0 1-.234-.068A.402.402 0 0 1 0 19.58V.42C0 .273.068.137.186.068a.406.406 0 0 1 .42-.02l19.16 9.58A.398.398 0 0 1 20 10a.398.398 0 0 1-.234.371l-19.16 9.58A.438.438 0 0 1 .42 20Z" fill-rule="evenodd"/></symbol><symbol viewBox="0 0 13 13" id="plus" xmlns="http://www.w3.org/2000/svg"><path d="M6.882 6.118H13v.764H6.882V13h-.764V6.882H0v-.764h6.118V0h.764v6.118Z" fill-rule="nonzero"/></symbol><symbol viewBox="0 0 21.02 24" id="podcast" xmlns="http://www.w3.org/2000/svg"><path d="M10.52 3.86a6.43 6.43 0 0 0-5.45 9.83 1 1 0 0 0 1.35.41 1 1 0 0 0 .42-1.35l-.08-.12a4.43 4.43 0 1 1 7.5 0 1 1 0 1 0 1.69 1.07 6.43 6.43 0 0 0-5.43-9.84Z"/><path d="M10.52 0a10.5 10.5 0 0 0-7.75 17.6 1 1 0 0 0 1.47-1.35 8.5 8.5 0 1 1 12.54 0 1.002 1.002 0 0 0 1.48 1.35A10.5 10.5 0 0 0 10.52 0Z"/><path d="M11.77 15H9.23a2 2 0 0 0-2 2 1.77 1.77 0 0 0 0 .23l.56 5a2 2 0 0 0 2 1.78h1.42a2 2 0 0 0 2-1.78l.56-5A2 2 0 0 0 12 15ZM12.27 8.73a2.5 2.5 0 1 1-3.54 0 2.52 2.52 0 0 1 3.54 0"/></symbol><symbol viewBox="0 0 18 18" id="research" xmlns="http://www.w3.org/2000/svg"><path d="M13 0H5C2.2 0 0 2.2 0 5v8c0 2.7 2.2 5 5 5h7.1c.4 0 .8-.4.8-.8s-.4-.8-.8-.8H5c-1.9 0-3.4-1.5-3.4-3.4V5c0-1.9 1.5-3.4 3.4-3.4h8c1.9 0 3.4 1.5 3.4 3.4v7.1c0 .4.4.8.8.8s.8-.4.8-.8V5c0-2.7-2.2-5-5-5z"/><path d="M13.8 12c.6-.9.9-1.8.9-2.9 0-3.1-2.5-5.6-5.6-5.6S3.4 6 3.4 9.1s2.5 5.6 5.6 5.6c1.4 0 2.1-.3 3-.9l3.8 3.8c.2.2.6.4.9.4s.6-.1.9-.4c.5-.5.5-1.3 0-1.8L13.8 12zm-4.8.8c-2.1 0-3.7-1.7-3.7-3.8S7 5.2 9 5.2s3.7 1.7 3.7 3.8S11 12.8 9 12.8z"/></symbol><symbol viewBox="0 0 15 15" id="search" xmlns="http://www.w3.org/2000/svg"><path d="M5.623 0A5.626 5.626 0 0 0-.002 5.625a5.626 5.626 0 0 0 5.625 5.625 5.507 5.507 0 0 0 3.003-.872l4.233 4.256c.25.241.58.366.887.366a1.251 1.251 0 0 0 .886-2.139l-4.255-4.233c.556-.864.871-1.89.871-3.003A5.626 5.626 0 0 0 5.623 0Zm0 9.375a3.757 3.757 0 0 1-3.75-3.75 3.757 3.757 0 0 1 3.75-3.75 3.757 3.757 0 0 1 3.75 3.75 3.757 3.757 0 0 1-3.75 3.75Z" fill-rule="evenodd"/></symbol><symbol viewBox="0 0 22 20" id="snapchat" xmlns="http://www.w3.org/2000/svg"><path d="M21.503 14.994c-2.772-.444-4.035-3.175-4.17-3.485l-.016-.034c-.139-.275-.173-.498-.1-.663.145-.335.761-.525 1.156-.647.111-.035.216-.067.298-.1.8-.306 1.2-.699 1.191-1.166-.007-.371-.306-.712-.749-.865a1.386 1.386 0 0 0-.51-.096c-.123 0-.304.017-.478.096-.338.154-.638.237-.866.246a.85.85 0 0 1-.233-.038l.023-.36.004-.062c.094-1.456.211-3.269-.287-4.355C15.294.25 12.17 0 11.246 0l-.43.004c-.922 0-4.04.25-5.512 3.463-.499 1.089-.38 2.9-.286 4.356.01.144.018.283.026.42a.877.877 0 0 1-.277.039c-.265 0-.582-.084-.943-.248-.52-.238-1.473.08-1.602.739-.07.356.078.87 1.177 1.293.085.033.193.066.325.107.368.114.985.304 1.13.639.073.165.038.388-.114.69-.054.124-1.36 3.019-4.243 3.481a.58.58 0 0 0-.496.6.722.722 0 0 0 .06.247c.242.552 1.165.936 2.902 1.204.039.096.083.293.108.408.037.163.075.331.128.506.053.177.21.473.664.473.153 0 .331-.034.524-.07a5.724 5.724 0 0 1 1.13-.126c.26 0 .533.023.808.067.52.084.975.398 1.504.762.778.536 1.486.946 2.901.946.038 0 .075-.001.111-.004.053.003.105.004.159.004 1.24 0 2.33-.319 3.244-.947.504-.348.98-.676 1.5-.76.277-.045.55-.068.81-.068.452 0 .813.057 1.134.118.218.042.388.062.545.062.317 0 .55-.17.639-.466a7.28 7.28 0 0 0 .127-.502c.02-.09.068-.302.108-.405 1.712-.265 2.587-.633 2.829-1.184a.712.712 0 0 0 .063-.252.581.581 0 0 0-.496-.602Z" fill-rule="nonzero"/></symbol><symbol viewBox="0 0 18 18" id="star" xmlns="http://www.w3.org/2000/svg"><path d="m17.895 7.392-4.377 4.359 1.107 5.81a.4.4 0 0 1-.167.377.389.389 0 0 1-.21.062.361.361 0 0 1-.203-.062L9 14.687l-5.045 3.251a.39.39 0 0 1-.413 0 .4.4 0 0 1-.167-.377l1.107-5.81-4.377-4.36C0 7.296-.018 7.129.018 6.98a.383.383 0 0 1 .36-.229h5.748L8.648.246A.402.402 0 0 1 9 0c.15 0 .29.105.352.246l2.522 6.504h5.748c.15 0 .299.08.36.229.036.149.018.316-.087.413Z" fill-rule="evenodd"/></symbol><symbol viewBox="0 0 21 24" style="enable-background:new 0 0 21 24" xml:space="preserve" id="threads" xmlns="http://www.w3.org/2000/svg"><path d="M16.2 11.1c-.1 0-.2-.1-.3-.1-.2-3.4-2.1-5.4-5.2-5.4-1.9 0-3.4.8-4.4 2.2L8 9c.7-1.1 1.8-1.3 2.7-1.3 1 0 1.8.3 2.3.9.4.4.6 1 .7 1.8-.9-.2-1.9-.2-3-.1-3 .2-4.9 1.9-4.8 4.3.1 1.2.7 2.3 1.7 3 .9.6 2 .9 3.2.8 1.6-.1 2.8-.7 3.6-1.8.6-.8 1.1-1.9 1.2-3.2.7.4 1.3 1 1.6 1.8.5 1.2.5 3.2-1.1 4.8-1.4 1.4-3.1 2-5.7 2-2.8 0-5-.9-6.4-2.7-1.3-1.7-2-4.1-2-7.2 0-3.1.7-5.5 2-7.2C5.7 3 7.8 2.1 10.7 2.1c2.9 0 5.1.9 6.5 2.7.7.9 1.2 2 1.6 3.3l2-.5c-.4-1.6-1.1-2.9-2-4.1C16.9 1.2 14.2 0 10.7 0s-6.2 1.2-8 3.5C1 5.6.2 8.4.2 12c0 3.6.9 6.4 2.5 8.5 1.8 2.3 4.5 3.5 8 3.5 3.1 0 5.3-.8 7.1-2.6 2.4-2.4 2.3-5.3 1.5-7.2-.5-1.3-1.6-2.4-3.1-3.1zm-5.3 5.1c-1.3.1-2.7-.5-2.7-1.8 0-.9.7-2 2.8-2.1h.7c.8 0 1.5.1 2.2.2-.3 3.1-1.8 3.6-3 3.7z"/></symbol><symbol viewBox="0 0 24 16" id="ticket" xmlns="http://www.w3.org/2000/svg"><path d="M23.159 5.523A.992.992 0 0 0 24 4.529V1a1 1 0 0 0-1-1h-3.75a.5.5 0 0 0-.5.5V2a.75.75 0 1 1-1.5 0V.5a.5.5 0 0 0-.5-.5H1a1 1 0 0 0-1 1v3.536a1 1 0 0 0 .858.989 2.5 2.5 0 0 1 0 4.95 1 1 0 0 0-.858.989V15a1 1 0 0 0 1 1h15.75a.5.5 0 0 0 .5-.5V14a.75.75 0 1 1 1.5 0v1.5a.5.5 0 0 0 .5.5H23a1 1 0 0 0 1-1v-3.529a.993.993 0 0 0-.84-.994 2.5 2.5 0 0 1 0-4.954h-.001ZM14 5.889c0 .061-.199.111-.444.111H6.444C6.2 6 6 5.95 6 5.889V4.11C6 4.05 6.199 4 6.444 4h7.112c.245 0 .444.05.444.111V5.89Zm0 5c0 .061-.199.111-.444.111H6.444C6.2 11 6 10.95 6 10.889V9.11C6 9.05 6.199 9 6.444 9h7.112c.245 0 .444.05.444.111v1.778ZM18.75 9.5a.75.75 0 1 1-1.5 0v-3a.75.75 0 1 1 1.5 0v3Z" fill="#000" fill-rule="nonzero"/></symbol><symbol viewBox="0 0 23 27" id="tiktok" xmlns="http://www.w3.org/2000/svg"><path d="M16.91 0h-4.537v18.391c0 2.192-1.746 3.992-3.918 3.992s-3.917-1.8-3.917-3.992c0-2.152 1.707-3.913 3.801-3.991V9.783C3.723 9.86 0 13.657 0 18.39 0 23.165 3.801 27 8.494 27s8.494-3.874 8.494-8.609v-9.43A10.49 10.49 0 0 0 23 10.996V6.378C19.587 6.261 16.91 3.443 16.91 0Z"/></symbol><symbol viewBox="0 0 18 15" id="twitter" xmlns="http://www.w3.org/2000/svg"><path d="M18 1.73a7.374 7.374 0 0 1-2.12.581A3.708 3.708 0 0 0 17.503.27a7.444 7.444 0 0 1-2.347.896 3.693 3.693 0 0 0-6.292 3.367A10.483 10.483 0 0 1 1.254.675a3.664 3.664 0 0 0-.5 1.856 3.69 3.69 0 0 0 1.643 3.073A3.693 3.693 0 0 1 .724 5.14v.046a3.696 3.696 0 0 0 2.962 3.621 3.74 3.74 0 0 1-.973.13c-.238 0-.47-.024-.695-.07a3.694 3.694 0 0 0 3.448 2.565A7.408 7.408 0 0 1 .881 13.01c-.298 0-.592-.018-.881-.05a10.438 10.438 0 0 0 5.66 1.661c6.793 0 10.505-5.626 10.505-10.505l-.012-.478A7.374 7.374 0 0 0 18 1.73Z"/></symbol><symbol viewBox="0 0 23.38 23.89" id="twitter_x" xmlns="http://www.w3.org/2000/svg"><path class="bwcls-1" d="M13.91 10.12 22.61 0h-2.06l-7.56 8.78L6.96 0H0l9.13 13.28L0 23.89h2.06l7.98-9.28 6.37 9.28h6.96l-9.46-13.77Zm-2.82 3.28-.92-1.32L2.81 1.55h3.17l5.94 8.49.92 1.32 7.72 11.04h-3.17l-6.3-9.01Z"/></symbol><symbol viewBox="0 0 15 15" id="user" xmlns="http://www.w3.org/2000/svg"><path d="M15 14.063v.622c0 .176-.14.315-.315.315H.315A.313.313 0 0 1 0 14.685v-.623c0-3.127 5.625-2.497 5.625-5.002 0 0-1.875-1.875-1.875-5.31A3.757 3.757 0 0 1 7.5 0a3.757 3.757 0 0 1 3.75 3.75c0 3.435-1.875 5.31-1.875 5.31 0 2.505 5.625 1.875 5.625 5.002Z" fill-rule="evenodd"/></symbol><symbol viewBox="0 0 19 18" id="vimeo" xmlns="http://www.w3.org/2000/svg"><path d="M.986 0h18v18h-18V0Zm1.96 6.204.697.888s.87-.679 1.183-.679c.195 0 .61.226.87 1.01.262.783 1.361 4.843 1.428 5.03.3.84.696 2.401 1.914 2.628 1.219.226 2.768-1.01 3.62-1.915.853-.905 4.213-4.769 4.352-7.084.129-2.14-.574-2.637-.888-2.836-.574-.366-1.531-.488-2.437-.175-.905.314-2.28 1.34-2.645 3.168 0 0 1.236-.452 1.688-.017.453.435.331 1.392-.052 2.106-.383.713-1.462 2.367-1.862 2.419-.4.052-.714-.731-.766-.94-.052-.209-.714-3.08-.957-4.751-.244-1.671-1.306-1.95-1.81-1.95-.505 0-1.375.383-4.334 3.098Z"/></symbol><symbol viewBox="0 0 18 14" id="webcast" xmlns="http://www.w3.org/2000/svg"><path d="M.5 2.5c-.3 0-.5.2-.5.5v8c0 .3.2.5.5.5s.5-.2.5-.5V3c0-.3-.2-.5-.5-.5zm16.9 0c-.3 0-.5.2-.5.5v8c0 .3.2.5.5.5s.5-.2.5-.5V3c0-.3-.2-.5-.5-.5zM13 0H5C3.3 0 2 1.3 2 3v8c0 1.7 1.3 3 3 3h8c1.7 0 3-1.3 3-3V3c0-1.7-1.3-3-3-3zM7.5 9.9c-.3.2-.7 0-.7-.4v-5c0-.4.4-.6.7-.4l4 2.5c.3.2.3.7 0 .9l-4 2.4z"/></symbol><symbol viewBox="0 0 15 14" id="world" xmlns="http://www.w3.org/2000/svg"><path d="M7.417 0c3.876 0 7 3.124 7 7s-3.124 7-7 7-7-3.124-7-7 3.124-7 7-7Zm.875 12.544c.875 0 2.625-1.463 2.625-3.5 0-1.135-.91-2.044-2.044-2.044H7.71c-.875 0-1.463-.438-1.463-1.019 0-.41.328-.731.731-.731.581 0 .602.581 1.019.581.328 0 .588-.26.588-.581 0-.567-.28-.861-.554-1.135.164-.307.533-1.114.554-2.283a.295.295 0 0 0-.246-.294 6.012 6.012 0 0 0-.923-.082c-2.461.082-4.081 1.251-4.081 3.213 0 1.75 1.456 3.206 3.206 3.206h.048a1.907 1.907 0 0 0-.048.438c0 .888.615 1.654 1.456 1.845v2.092c0 .164.13.294.294.294Z" fill-rule="evenodd"/></symbol><symbol viewBox="0 0 21 15" id="youtube" xmlns="http://www.w3.org/2000/svg"><path d="M19.945 2.112c-.538-.956-1.12-1.131-2.307-1.198C16.452.834 13.47.8 10.888.8c-2.587 0-5.57.033-6.754.113-1.184.068-1.768.242-2.31 1.199-.553.954-.838 2.597-.838 5.49v.01c0 2.881.285 4.537.838 5.481.542.956 1.125 1.129 2.309 1.21 1.186.069 4.168.11 6.756.11 2.582 0 5.563-.041 6.75-.11 1.187-.08 1.77-.253 2.307-1.208.558-.945.84-2.6.84-5.481v-.01c0-2.895-.282-4.538-.841-5.492ZM8.41 11.319V3.894L14.6 7.606 8.41 11.32Z"/></symbol></svg>