<svg width="18" height="18" viewBox="0 0 18 18" fill="none" xmlns="http://www.w3.org/2000/svg">
<path fill-rule="evenodd" clip-rule="evenodd" d="M16.506 8.00307L13.8732 10.4428C13.8914 10.2487 13.9005 10.0629 13.9005 9.86876C13.9005 9.15119 13.7638 8.4505 13.4905 7.76669L14.8662 6.46661C15.3945 5.96853 15.6587 5.32694 15.6587 4.68534C15.6587 4.0353 15.3945 3.39371 14.8662 2.90407C14.3378 2.41443 13.6454 2.16961 12.9439 2.16961C12.2516 2.16961 11.5592 2.41443 11.0217 2.90407L8.10652 5.5802C7.57814 6.08672 7.30484 6.73676 7.30484 7.3868C7.30484 8.03684 7.56903 8.67844 8.10652 9.16808C8.34338 9.38757 8.46181 9.66616 8.46181 9.9363C8.46181 10.2064 8.34338 10.4766 8.10652 10.6876C7.88788 10.8987 7.58725 11 7.28662 11C6.99509 11 6.69446 10.8987 6.46671 10.6876C5.49194 9.76746 5 8.56869 5 7.36992C5 6.17114 5.49194 4.97237 6.46671 4.06063L9.3637 1.3845C10.3567 0.464312 11.6412 0 12.9257 0C14.2193 0 15.513 0.464312 16.506 1.3845C17.4989 2.30468 18 3.50345 18 4.70222C18 5.89255 17.4989 7.08289 16.506 8.00307ZM11.5343 13.9372L8.62115 16.6345C7.63795 17.5448 6.34524 18 5.04342 18C3.7507 18 2.45798 17.5448 1.47479 16.6345C0.491597 15.7241 0 14.5272 0 13.3303C0 12.1249 0.491597 10.928 1.47479 10.0176L4.13305 7.56475C4.11485 7.75862 4.10574 7.94406 4.10574 8.13793C4.10574 8.86284 4.2423 9.57931 4.51541 10.2621L3.14076 11.5349C2.61274 12.0238 2.34874 12.6728 2.34874 13.3134C2.34874 13.9625 2.61274 14.6031 3.14076 15.092C3.66877 15.5808 4.36064 15.8253 5.06162 15.8253C5.7535 15.8253 6.45448 15.5808 6.98249 15.092L9.86835 12.4199C10.4146 11.931 10.6786 11.282 10.6786 10.6414C10.6786 9.99234 10.4146 9.35172 9.86835 8.86283C9.64076 8.65211 9.53151 8.37395 9.53151 8.08736C9.53151 7.8092 9.64076 7.53103 9.86835 7.3203C10.0959 7.10958 10.3964 7 10.7059 7C11.0063 7 11.3067 7.10958 11.5343 7.3203C12.5175 8.23908 13 9.43601 13 10.6329C13 11.8299 12.5175 13.0268 11.5343 13.9372Z" fill="#FFC72C"/>
</svg>
